<svg version="1.1" xmlns="http://www.w3.org/2000/svg" width="88px" height="135" viewBox="0 0 88 135" enable-background="new 0 0 88 135" xml:space="preserve"><path d="M70.231,135.001c-9.798,0-17.77-7.972-17.77-17.771V78.805H24.364v-7.233c0-7.517,4.76-14.25,11.845-16.755 c5.763-2.037,10.519-6.13,13.394-11.525c3.06-5.747,3.699-12.342,1.799-18.57c-1.9-6.229-6.111-11.344-11.859-14.405 c-5.747-3.06-12.341-3.7-18.57-1.8c-6.228,1.9-11.344,6.112-14.404,11.86L0,16.878C3.994,9.377,10.672,3.879,18.801,1.399 c8.129-2.479,16.738-1.646,24.238,2.349c7.503,3.995,13,10.672,15.479,18.802c2.479,8.129,1.646,16.737-2.35,24.238 c-3.751,7.042-9.958,12.385-17.479,15.043c-4.054,1.433-6.797,5.247-6.883,9.533h20.655v-10.33c0-9.799,7.972-17.77,17.77-17.77 S88,51.235,88,61.034s-7.971,17.771-17.769,17.771H59.902V99.46h10.329C80.029,99.46,88,107.432,88,117.23 S80.029,135.001,70.231,135.001z M59.902,106.9v10.33c0,5.696,4.634,10.33,10.329,10.33c5.694,0,10.328-4.634,10.328-10.33 c0-5.697-4.634-10.33-10.328-10.33H59.902z M59.902,71.364h10.329c5.694,0,10.328-4.635,10.328-10.33 c0-5.697-4.634-10.33-10.328-10.33c-5.695,0-10.329,4.633-10.329,10.33V71.364z"/><path d="M28.084,110.411c-3.987,0-7.232-3.243-7.232-7.231c0-3.987,3.245-7.23,7.232-7.23h7.233v7.23 C35.317,107.168,32.072,110.411,28.084,110.411z"/></svg>
