<?xml version="1.0" encoding="utf-8"?>
<!-- Generator: Adobe Illustrator 19.2.1, SVG Export Plug-In . SVG Version: 6.00 Build 0)  -->
<svg version="1.1" id="interrosplat" xmlns="http://www.w3.org/2000/svg" xmlns:xlink="http://www.w3.org/1999/xlink" x="0px"
	 y="0px" viewBox="0 0 720 576" style="enable-background:new 0 0 720 576;" xml:space="preserve">
<style type="text/css">
	.st0{fill:none;stroke:#000000;stroke-width:5;}
</style>
<g>
	<path class="st0" d="M2.4,16.2C5.7,5.9,16.7,0.2,26.9,3.4s16,14.2,12.7,24.5c-1.5,4.7-4.6,8.6-8.9,11c-6,3.5-9.8,9.9-9.8,16.9h20.6
		c4.1,0,7.4-3.3,7.4-7.4S45.8,41,41.7,41c-4.1,0-7.4,3.3-7.4,7.4c0,0,0,0,0,0v28.1c0,4.1,3.3,7.4,7.4,7.4s7.4-3.3,7.4-7.4
		S45.8,69,41.7,69h0h-7.4"/>
	<path class="st0" d="M22.8,67.3h-1.7c-1,0-1.7,0.8-1.7,1.7c0,1,0.8,1.7,1.7,1.7c1,0,1.7-0.8,1.7-1.7V67.3z"/>
</g>
<g>
	<path d="M41.6,86.4c-5.5,0-9.9-4.5-9.9-9.9V58.4H18.5v-2.5c0-7.8,4.2-15.2,11-19.1c3.7-2.1,6.4-5.6,7.7-9.6
		c2.8-9-2.2-18.5-11.1-21.4C17.2,3,7.6,8,4.8,16.9L0,15.4C3.7,3.8,16.1-2.6,27.6,1c11.6,3.7,18,16.1,14.4,27.6
		c-1.7,5.3-5.2,9.7-10,12.5c-4.5,2.6-7.6,7.2-8.3,12.2h8v-4.9c0-5.5,4.5-9.9,9.9-9.9s9.9,4.5,9.9,9.9s-4.5,9.9-9.9,9.9h-4.9v8.2h4.9
		c5.5,0,9.9,4.5,9.9,9.9S47.1,86.4,41.6,86.4z M36.7,71.5v4.9c0,2.7,2.2,4.9,4.9,4.9s4.9-2.2,4.9-4.9s-2.2-4.9-4.9-4.9H36.7z
		 M36.7,53.4h4.9c2.7,0,4.9-2.2,4.9-4.9s-2.2-4.9-4.9-4.9s-4.9,2.2-4.9,4.9V53.4z"/>
	<path d="M21,73.3c-2.3,0-4.2-1.9-4.2-4.2s1.9-4.2,4.2-4.2h4.2V69C25.2,71.4,23.3,73.3,21,73.3z"/>
</g>
</svg>
