<svg xmlns="http://www.w3.org/2000/svg" width="32.579" height="31.775"><path fill-rule="evenodd" clip-rule="evenodd" fill="#181616" d="M16.289 0c-8.995 0-16.289 7.293-16.289 16.291 0 7.196 4.667 13.302 11.141 15.456.814.149 1.112-.354 1.112-.785l-.022-2.771c-4.531.984-5.487-2.184-5.487-2.184-.741-1.882-1.809-2.383-1.809-2.383-1.479-1.011.112-.99.112-.99 1.635.115 2.495 1.679 2.495 1.679 1.453 2.489 3.812 1.771 4.741 1.354.148-1.053.569-1.771 1.034-2.178-3.617-.411-7.42-1.809-7.42-8.051 0-1.778.635-3.232 1.677-4.371-.167-.412-.727-2.068.16-4.311 0 0 1.368-.438 4.479 1.67 1.299-.361 2.693-.542 4.078-.548 1.384.006 2.776.187 4.078.548 3.11-2.108 4.476-1.67 4.476-1.67.889 2.243.329 3.899.162 4.311 1.043 1.139 1.674 2.593 1.674 4.371 0 6.258-3.809 7.635-7.438 8.038.585.503 1.105 1.497 1.105 3.017 0 2.178-.02 3.935-.02 4.469 0 .436.293.942 1.12.783 6.468-2.158 11.13-8.26 11.13-15.454.001-8.998-7.292-16.291-16.289-16.291z"/></svg>