<svg xmlns="http://www.w3.org/2000/svg" width="144" height="144"><rect fill="#fafafa" width="144" height="144"/><g fill="#222"><path d="M96.679 135.505c-9.218 0-16.718-7.5-16.718-16.719v-36.151h-26.435v-6.805c0-7.071 4.479-13.406 11.144-15.763 5.422-1.917 9.896-5.768 12.601-10.844 2.879-5.407 3.48-11.611 1.692-17.471-1.787-5.86-5.749-10.673-11.157-13.552-5.406-2.879-11.61-3.481-17.471-1.693-5.859 1.788-10.673 5.75-13.552 11.158l-6.179-3.29c3.758-7.058 10.04-12.229 17.688-14.563 7.648-2.332 15.748-1.548 22.804 2.21 7.059 3.758 12.23 10.041 14.563 17.688 2.332 7.648 1.548 15.747-2.211 22.804-3.528 6.626-9.368 11.652-16.444 14.153-3.813 1.348-6.395 4.936-6.476 8.968h19.433v-9.719c0-9.218 7.5-16.718 16.718-16.718s16.717 7.5 16.717 16.718c0 9.219-7.499 16.719-16.717 16.719h-9.718v19.433h9.718c9.218 0 16.717 7.5 16.717 16.719s-7.5 16.718-16.717 16.718zm-9.718-26.438v9.719c0 5.359 4.359 9.719 9.718 9.719 5.357 0 9.717-4.359 9.717-9.719s-4.359-9.719-9.717-9.719h-9.718zm0-33.432h9.718c5.357 0 9.717-4.36 9.717-9.719 0-5.358-4.359-9.718-9.717-9.718-5.358 0-9.718 4.359-9.718 9.718v9.719z"/><path d="M57.026 112.371c-3.752 0-6.805-3.052-6.805-6.804 0-3.751 3.053-6.803 6.805-6.803h6.805v6.803c0 3.752-3.053 6.804-6.805 6.804z"/></g></svg>