<svg xmlns="http://www.w3.org/2000/svg" width="144" height="144"><rect fill="#fafafa" width="144" height="144"/><path d="M60.536 100.287h-3.305c-1.825 0-3.305 1.477-3.305 3.303 0 1.824 1.479 3.304 3.305 3.304s3.305-1.479 3.305-3.304v-3.303z"/><path stroke="#000" stroke-width="4" stroke-miterlimit="10" d="M33.898 24.042c6.862-12.887 22.872-17.771 35.757-10.909 12.889 6.863 17.771 22.873 10.909 35.758-3.107 5.834-8.289 10.295-14.522 12.498-5.28 1.867-8.811 6.86-8.811 12.463v3.305h26.435v-13.219c0-7.3 5.918-13.218 13.218-13.218 7.299 0 13.217 5.918 13.217 13.218 0 7.299-5.918 13.219-13.217 13.219h-13.218v39.651c0 7.3 5.918 13.219 13.218 13.219 7.299 0 13.217-5.919 13.217-13.219 0-7.301-5.918-13.219-13.217-13.219h-13.218" fill="none"/></svg>