<?xml version="1.0" encoding="utf-8"?>
<!DOCTYPE svg PUBLIC "-//W3C//DTD SVG 1.1//EN" "http://www.w3.org/Graphics/SVG/1.1/DTD/svg11.dtd">
<svg version="1.1" xmlns="http://www.w3.org/2000/svg" width="144px" height="144px" viewBox="0 0 144 144" enable-background="new 0 0 144 144">
    <rect fill="none" stroke="none" width="144" height="144"/>
    <g>
        <path fill="none" stroke="#000000" stroke-width="1" stroke-miterlimit="10" d="M60.536,100.287h-3.305
            c-1.825,0-3.305,1.477-3.305,3.303c0,1.824,1.479,3.304,3.305,3.304s3.305-1.479,3.305-3.304l0,0V100.287z"/>
        <path fill="none" stroke="#000000" stroke-width="1" stroke-miterlimit="10" d="M33.898,24.042
            c6.862-12.887,22.872-17.771,35.757-10.909c12.889,6.863,17.771,22.873,10.909,35.758c-3.107,5.834-8.289,10.295-14.522,12.498
            c-5.28,1.867-8.811,6.86-8.811,12.463v3.305h26.435V63.938c0-7.3,5.918-13.218,13.218-13.218c7.299,0,13.217,5.918,13.217,13.218
            c0,7.299-5.918,13.219-13.217,13.219H83.666v39.651c0,7.3,5.918,13.219,13.218,13.219c7.299,0,13.217-5.919,13.217-13.219
            c0-7.301-5.918-13.219-13.217-13.219l0,0H83.666"/>
    </g>
</svg>
