<?xml version="1.0" encoding="utf-8"?>
<!DOCTYPE svg PUBLIC "-//W3C//DTD SVG 1.1//EN" "http://www.w3.org/Graphics/SVG/1.1/DTD/svg11.dtd">
<svg version="1.1" xmlns="http://www.w3.org/2000/svg" width="144px" height="144px" viewBox="0 0 144 144" enable-background="new 0 0 144 144">
    <rect fill="#fafafa" width="144" height="144"/>
    <g display="none">
        <path fill="#222222" d="M96.679,135.505c-9.218,0-16.718-7.5-16.718-16.719V82.635H53.526V75.83
            c0-7.071,4.479-13.406,11.144-15.763c5.422-1.917,9.896-5.768,12.601-10.844c2.879-5.407,3.48-11.611,1.692-17.471
            c-1.787-5.86-5.749-10.673-11.157-13.552c-5.406-2.879-11.61-3.481-17.471-1.693c-5.859,1.788-10.673,5.75-13.552,11.158
            l-6.179-3.29c3.758-7.058,10.04-12.229,17.688-14.563c7.648-2.332,15.748-1.548,22.804,2.21
            c7.059,3.758,12.23,10.041,14.563,17.688c2.332,7.648,1.548,15.747-2.211,22.804C79.92,59.14,74.08,64.166,67.004,66.667
            c-3.813,1.348-6.395,4.936-6.476,8.968h19.433v-9.719c0-9.218,7.5-16.718,16.718-16.718s16.717,7.5,16.717,16.718
            c0,9.219-7.499,16.719-16.717,16.719h-9.718v19.433h9.718c9.218,0,16.717,7.5,16.717,16.719S105.896,135.505,96.679,135.505z
             M86.961,109.067v9.719c0,5.359,4.359,9.719,9.718,9.719c5.357,0,9.717-4.359,9.717-9.719s-4.359-9.719-9.717-9.719H86.961z
             M86.961,75.635h9.718c5.357,0,9.717-4.36,9.717-9.719c0-5.358-4.359-9.718-9.717-9.718c-5.358,0-9.718,4.359-9.718,9.718V75.635z"
            />
        <path fill="#222222" d="M57.026,112.371c-3.752,0-6.805-3.052-6.805-6.804c0-3.751,3.053-6.803,6.805-6.803h6.805v6.803
            C63.831,109.319,60.778,112.371,57.026,112.371z"/>
    </g>
    <g>
        <path fill="#000000" stroke="none" stroke-width="4" stroke-miterlimit="10" d="M60.536,100.287h-3.305
            c-1.825,0-3.305,1.477-3.305,3.303c0,1.824,1.479,3.304,3.305,3.304s3.305-1.479,3.305-3.304l0,0V100.287z"/>
        <path fill="none" stroke="#000000" stroke-width="4" stroke-miterlimit="10" d="M33.898,24.042
            c6.862-12.887,22.872-17.771,35.757-10.909c12.889,6.863,17.771,22.873,10.909,35.758c-3.107,5.834-8.289,10.295-14.522,12.498
            c-5.28,1.867-8.811,6.86-8.811,12.463v3.305h26.435V63.938c0-7.3,5.918-13.218,13.218-13.218c7.299,0,13.217,5.918,13.217,13.218
            c0,7.299-5.918,13.219-13.217,13.219H83.666v39.651c0,7.3,5.918,13.219,13.218,13.219c7.299,0,13.217-5.919,13.217-13.219
            c0-7.301-5.918-13.219-13.217-13.219l0,0H83.666"/>
    </g>
</svg>
